<?xml version="1.0" encoding="utf-8"?>
<!-- Generator: Adobe Illustrator 23.0.2, SVG Export Plug-In . SVG Version: 6.00 Build 0)  -->
<svg version="1.1" id="Layer_1" xmlns="http://www.w3.org/2000/svg" xmlns:xlink="http://www.w3.org/1999/xlink" x="0px" y="0px"
	 viewBox="0 0 100 100" style="enable-background:new 0 0 100 100;" xml:space="preserve">
<style type="text/css">
	.st0{fill:#aab2bd;}
</style>
<g>
	<path class="st0" d="M30,10.1c-6.6,0-12,5.4-12,12c0,6.6,5.4,12,12,12s12-5.4,12-12C42,15.4,36.7,10.1,30,10.1z M30,26
		c-2.2,0-4-1.8-4-4s1.8-4,4-4s4,1.8,4,4C34.1,24.2,32.3,26,30,26z"/>
	<path class="st0" d="M2.1,58l5.6,5.6L18,53.3V90h8V73.9h8v15.9h8V42c0.1,0-24,0-24,0L2.1,58z M26.1,50h8v15.9h-8V50z"/>
	<path class="st0" d="M97.9,58L82,42H58l-8,35.9h8v12h8v-12h8v12h8v-12h8l-4.8-21.4l7.1,7.1L97.9,58z M59.9,70l4.4-20h11.1l4.4,20
		H59.9z"/>
	<path class="st0" d="M70,34.1c6.6,0,12-5.4,12-12c0-6.7-5.4-12-12-12s-12,5.4-12,12C58,28.7,63.4,34.1,70,34.1z M70,18
		c2.2,0,4,1.8,4,4s-1.8,4-4,4s-4-1.8-4-4S67.8,18,70,18z"/>
</g>
</svg>
