<?xml version="1.0" encoding="utf-8"?>
<!-- Generator: Adobe Illustrator 23.0.2, SVG Export Plug-In . SVG Version: 6.00 Build 0)  -->
<svg version="1.1" id="Layer_1" xmlns="http://www.w3.org/2000/svg" xmlns:xlink="http://www.w3.org/1999/xlink" x="0px" y="0px"
	 viewBox="0 0 100.4 100.4" style="enable-background:new 0 0 100.4 100.4;" xml:space="preserve">
<style type="text/css">
	.st0{fill:#aab2bd;}
</style>
<g>
	<path class="st0" d="M95.2,60.2c0-7-5.6-12.7-12.5-12.9C77.5,34.4,65,25.2,50.4,25c1.2-1.5,2.3-3.3,2.4-5.1c0.1-3.8-2.3-5.1-4-6.1
		c-1.6-0.9-2.3-1.4-2.3-2.9c0-3,2.8-3.2,3.4-3.3c0.8,0,1.5-0.7,1.5-1.5c0-0.8-0.7-1.5-1.5-1.5c-2.2,0.1-6.3,1.5-6.3,6.3
		c0,3.3,2.2,4.6,3.8,5.5c1.7,1,2.5,1.6,2.5,3.5c0,1.4-2.1,3.9-3.7,5.3c-13.2,1.4-24.2,10.2-28.9,22.1c-6.8,0.3-12.3,6-12.3,12.9
		c0,6.9,5.5,12.6,12.3,12.9C22.3,86.1,35,95.4,49.9,95.4c14.9,0,27.6-9.3,32.8-22.3C89.6,72.9,95.2,67.2,95.2,60.2z M7.8,60.2
		c0-4.9,3.6-8.9,8.2-9.7c-0.9,3.1-1.4,6.4-1.4,9.7c0,3.4,0.5,6.6,1.4,9.7C11.4,69.1,7.8,65.1,7.8,60.2z M49.9,92.4
		c-17.8,0-32.2-14.4-32.2-32.2S32.1,28,49.9,28c17.8,0,32.2,14.4,32.2,32.2S67.6,92.4,49.9,92.4z M83.7,70c0.9-3.1,1.4-6.4,1.4-9.8
		c0-3.4-0.5-6.7-1.4-9.8c4.8,0.7,8.5,4.8,8.5,9.8C92.2,65.2,88.5,69.3,83.7,70z"/>
	<path class="st0" d="M40.7,56.4c0,0.8,0.7,1.5,1.5,1.5s1.5-0.7,1.5-1.5c0-3.8-3.1-7-7-7s-7,3.1-7,7c0,0.8,0.7,1.5,1.5,1.5
		c0.8,0,1.5-0.7,1.5-1.5c0-2.2,1.8-4,4-4C38.9,52.4,40.7,54.2,40.7,56.4z"/>
	<path class="st0" d="M62.7,49.4c-3.8,0-7,3.1-7,7c0,0.8,0.7,1.5,1.5,1.5s1.5-0.7,1.5-1.5c0-2.2,1.8-4,4-4c2.2,0,4,1.8,4,4
		c0,0.8,0.7,1.5,1.5,1.5s1.5-0.7,1.5-1.5C69.7,52.5,66.6,49.4,62.7,49.4z"/>
	<path class="st0" d="M63.9,66.3c-0.8,0-1.5,0.7-1.5,1.5c0,6.9-5.6,12.5-12.5,12.5c-6.9,0-12.5-5.6-12.5-12.5c0-0.8-0.7-1.5-1.5-1.5
		s-1.5,0.7-1.5,1.5c0,8.6,7,15.5,15.5,15.5c8.6,0,15.5-7,15.5-15.5C65.4,66.9,64.7,66.3,63.9,66.3z"/>
</g>
</svg>
