<?xml version="1.0" encoding="utf-8"?>
<!-- Generator: Adobe Illustrator 23.0.2, SVG Export Plug-In . SVG Version: 6.00 Build 0)  -->
<svg version="1.1" id="Layer_1" xmlns="http://www.w3.org/2000/svg" xmlns:xlink="http://www.w3.org/1999/xlink" x="0px" y="0px"
	 viewBox="0 0 100.4 100.4" style="enable-background:new 0 0 100.4 100.4;" xml:space="preserve">
<style type="text/css">
	.st0{fill:#aab2bd;}
</style>
<g>
	<path class="st0" d="M67.8,58.4v-4.8c0-0.6-0.3-1.1-0.8-1.5c-0.4-0.3-1.1-0.3-1.6-0.1l-15.1,6.6l-15-6.6c-0.6-0.2-1.1-0.2-1.6,0.1
		c-0.4,0.3-0.8,0.8-0.8,1.5v4.6C19,64.8,10.1,78.9,10.1,94.3c0,0.9,0.8,1.7,1.7,1.7h76.7c0.9,0,1.7-0.8,1.7-1.7
		C90,79.1,81.3,65.2,67.8,58.4z M64.4,56.2v8.7l-9.9-4.4L64.4,56.2z M46.1,60.5l-9.9,4.3v-5.6l0,0v-3L46.1,60.5z M32.8,61.9v5.4
		c0,0.6,0.3,1.1,0.8,1.5c0.2,0.2,0.6,0.2,0.9,0.2c0.2,0,0.4,0,0.7-0.1l15.1-6.6l15.1,6.6C65.5,69,65.7,69,66,69s0.7-0.1,0.9-0.2
		c0.4-0.3,0.8-0.8,0.8-1.5v-5.1c3.8,2.1,7.2,4.9,10,8.2c0,0,0,0.1-0.1,0.1l-13.8,22H35.4l-13-22l-0.1-0.1
		C25.1,67,28.7,64.1,32.8,61.9z M20,73.3l11.5,19.3h-18C13.7,85.5,16,78.9,20,73.3z M67.6,92.6l12.3-19.3c3.9,5.6,6.3,12.3,6.6,19.3
		L67.6,92.6L67.6,92.6z"/>
	<path class="st0" d="M49.3,50.1C62,50.1,72.4,39.8,72.4,27c0-0.8,0-1.7-0.1-2.5c-0.1-0.7-0.2-1.1-0.2-1.7C70,12.2,60.6,4,49.3,4
		s-20.7,8.1-22.6,18.9c-0.1,0.3-0.2,1.3-0.2,1.7c-0.1,0.8-0.1,1.6-0.1,2.5C26.3,39.8,36.6,50.1,49.3,50.1z M49.3,46.7
		c-10.8,0-19.7-8.8-19.7-19.7c0-0.4,0-1,0.1-1.5c3.1-0.1,10-0.6,14.6-2.5c3.5-1.5,8.1-4.5,10-5.8l14.5,7.6c0.1,0.7,0.1,1.5,0.1,2.1
		C69,38,60.1,46.7,49.3,46.7z M49.3,7.4c8.5,0,15.9,5.5,18.6,13.2L55,13.8c-0.6-0.3-1.2-0.2-1.8,0.1c-0.1,0-6.2,4.4-10.2,6.1
		c-3.7,1.6-9.6,2-12.7,2.2C32.4,13.7,40.2,7.4,49.3,7.4z"/>
</g>
</svg>
