<?xml version="1.0" encoding="utf-8"?>
<!-- Generator: Adobe Illustrator 23.0.2, SVG Export Plug-In . SVG Version: 6.00 Build 0)  -->
<svg version="1.1" id="Layer_1" xmlns="http://www.w3.org/2000/svg" xmlns:xlink="http://www.w3.org/1999/xlink" x="0px" y="0px"
	 viewBox="0 0 24 24" style="enable-background:new 0 0 24 24;" xml:space="preserve">
<style type="text/css">
	.st0{fill-rule:evenodd;clip-rule:evenodd;fill:#aab2bd;}
</style>
<path class="st0" d="M10.7,3.2c0.2,0.3,0.8,0.9,1.3,1.2c0.5-0.3,1.1-0.8,1.3-1.2C13.1,3.1,12.8,3,12,3S10.9,3.1,10.7,3.2 M12,2L12,2
	c4.5,0.2,1.3,3.1,0,3.5l0,0C10.7,5.1,7.5,2.1,12,2 M12,11.9c-0.3,0-0.6,0.3-0.6,0.6s0.3,0.6,0.6,0.6s0.6-0.3,0.6-0.6
	S12.3,11.9,12,11.9 M12,14.9c-0.3,0-0.6,0.3-0.6,0.6s0.3,0.6,0.6,0.6s0.6-0.3,0.6-0.6S12.3,14.9,12,14.9 M12,8.9
	c-0.3,0-0.6,0.3-0.6,0.6s0.3,0.6,0.6,0.6s0.6-0.3,0.6-0.6S12.3,8.9,12,8.9 M20.8,21.5l2.1-0.5L19.6,5.3l-3.3-1.7
	c0.1,1.9-0.8,3.8-1.7,5.6c0,0-2.2-1.9-2.6-2.3c-0.5,0.4-2.6,2.3-2.6,2.3C8.5,7.3,7.6,5.5,7.7,3.6L4.4,5.3L1.2,21.1l2.1,0.5L6,11.9
	L7,12v11h10V12l1-0.1L20.8,21.5z M9.7,7.6C10.5,6.9,12,5.7,12,5.7s1.5,1.1,2.3,1.9c2-4.4,1-6.6-2.2-6.6H12C8.7,1,7.7,3.2,9.7,7.6
	 M24,21.7l-3.9,1L18,15.5V24H6v-8.4l-2.1,7.2l-3.9-1L3.6,4.7L8,2.3C8.8-0.1,11.5,0,12,0c0.8,0,3.2,0.1,4,2.3l4.4,2.3
	C20.4,4.7,24,21.7,24,21.7z M12,17.9c-0.3,0-0.6,0.3-0.6,0.6c0,0.3,0.3,0.6,0.6,0.6s0.6-0.3,0.6-0.6C12.6,18.2,12.3,17.9,12,17.9
	 M12.6,21.5c0,0.3-0.3,0.6-0.6,0.6s-0.6-0.3-0.6-0.6s0.3-0.6,0.6-0.6S12.6,21.2,12.6,21.5"/>
</svg>
