<?xml version="1.0" encoding="utf-8"?>
<!-- Generator: Adobe Illustrator 23.0.2, SVG Export Plug-In . SVG Version: 6.00 Build 0)  -->
<svg version="1.1" id="Layer_1" xmlns="http://www.w3.org/2000/svg" xmlns:xlink="http://www.w3.org/1999/xlink" x="0px" y="0px"
	 viewBox="0 0 108 107.4" style="enable-background:new 0 0 108 107.4;" xml:space="preserve">
<style type="text/css">
	.st0{fill:#aab2bd;}
</style>
<g>
	<path class="st0" d="M68,8H38h-5.6H8v28.1v3.8v24.4V68v30h90V68v-3.8V39.9v-3.8V8H73.6H68z M67.9,11.8C67,19.2,60.7,24.9,53,24.9
		s-13.9-5.7-14.9-13.1C38.1,11.8,67.9,11.8,67.9,11.8z M94.3,94.3H11.8V68h22.6c0.9,9.5,8.9,16.9,18.7,16.9S70.7,77.5,71.7,68h22.6
		C94.3,68,94.3,94.3,94.3,94.3z M38.1,68h29.7c-0.9,7.4-7.2,13.1-14.9,13.1S39.1,75.4,38.1,68z M94.3,64.3H68H38H11.8V39.9h22.6
		c0.9,9.5,8.9,16.9,18.7,16.9s17.7-7.4,18.7-16.9h22.6L94.3,64.3L94.3,64.3z M38.1,39.9h29.7C66.9,47.3,60.6,53,53,53
		S39.1,47.3,38.1,39.9z M94.3,11.8v24.4H68H38H11.8V11.8h20.6h2c0.9,9.5,8.9,16.9,18.7,16.9s17.7-7.4,18.7-16.9h2
		C73.8,11.8,94.3,11.8,94.3,11.8z"/>
</g>
</svg>
