<?xml version="1.0" encoding="utf-8"?>
<!-- Generator: Adobe Illustrator 23.0.2, SVG Export Plug-In . SVG Version: 6.00 Build 0)  -->
<svg version="1.1" id="Layer_1" xmlns="http://www.w3.org/2000/svg" xmlns:xlink="http://www.w3.org/1999/xlink" x="0px" y="0px"
	 viewBox="0 0 24 24" style="enable-background:new 0 0 24 24;" xml:space="preserve">
<style type="text/css">
	.st0{fill-rule:evenodd;clip-rule:evenodd;fill:#aab2bd;}
</style>
<path class="st0" d="M16.3,22.7L14.5,18l0.5,4.9c-0.9,0.1-2,0.1-3.1,0.1c-1.1,0-2.1-0.1-3-0.1L9.5,18l-1.8,4.7
	c-2.1-0.3-3.6-0.7-4.3-0.9L8.9,11h6.3l5.4,10.7C19.9,22,18.4,22.4,16.3,22.7 M7.6,5.5L5.1,6.3l-1-1.6l4.1-3.5
	C8.5,2.1,9.6,4.5,12,4.5c2.5,0,3.5-2.6,3.7-3.3l4.2,3.5l-1,1.6l-2.5-0.8L15.3,10H8.9C8.9,10,7.6,5.5,7.6,5.5z M14.5,1.6
	c-0.4,0.8-1.1,1.9-2.5,1.9c-1.3,0-2.1-1.1-2.5-1.9C11.4,2.2,12.8,2.2,14.5,1.6 M16.1,10.6l1-3.8l2.2,0.7l1.9-3L15.9,0
	C15,0.4,12.2,2,8.1,0L2.8,4.5l1.9,3l2.2-0.7L8,10.6L2,22.3l0.5,0.2C2.7,22.6,6.2,24,12,24s9.4-1.4,9.5-1.5l0.5-0.2
	C22,22.3,16.1,10.6,16.1,10.6z"/>
</svg>
