<?xml version="1.0" encoding="utf-8"?>
<!-- Generator: Adobe Illustrator 23.0.2, SVG Export Plug-In . SVG Version: 6.00 Build 0)  -->
<svg version="1.1" id="Layer_1" xmlns="http://www.w3.org/2000/svg" xmlns:xlink="http://www.w3.org/1999/xlink" x="0px" y="0px"
	 viewBox="0 0 100.4 100.4" style="enable-background:new 0 0 100.4 100.4;" xml:space="preserve">
<style type="text/css">
	.st0{fill:#aab2bd;}
</style>
<g>
	<path class="st0" d="M86.2,96.8c0-19.9-16.2-36.2-36.2-36.2c-19.8,0-35.9,15.9-36.2,35.6c0,0.1,0,0.2,0,0.3c0,0,0,0,0,0.1
		c0,0.1,0,0.1,0,0.2c0,0.8,0.7,1.5,1.5,1.5h68.9c0.1,0,0.3,0.1,0.4,0.1c0.4,0,0.8-0.2,1.1-0.5C86,97.6,86.2,97.2,86.2,96.8z
		 M50,63.6c12.8,0,23.9,7.3,29.5,18c-3.7-3.4-8.5-5.4-14-5.4c-5.9,0-11.4,2.5-15.4,6.9c-4-4.4-9.5-6.9-15.4-6.9
		c-5.5,0-10.4,2-14.1,5.2C26.2,70.9,37.2,63.6,50,63.6z M83,95.3H16.9c0.6-9.1,8.2-16.1,17.8-16.1c5.6,0,10.8,2.6,14.2,7.1
		c0.6,0.8,1.8,0.8,2.4,0c3.4-4.5,8.6-7.1,14.2-7.1C74.8,79.2,82.3,86.2,83,95.3z"/>
	<path class="st0" d="M49.4,56.8c11.5,0,20.8-9.3,20.8-20.8c0-7.8-4.3-14.6-10.7-18.2c0.8-1.5,1.1-3.2,1.1-5
		c0-6.2-5.1-11.3-11.3-11.3c-6.2,0-11.3,5.1-11.3,11.3c0,2.1,0.4,3.5,1.1,5c-5.8,3.3-9.8,9.2-10.5,16.1c0,0.1,0,0.1,0,0.2
		c-0.1,0.6-0.1,1.2-0.1,1.9C28.6,47.5,37.9,56.8,49.4,56.8z M49.4,53.8c-9.8,0-17.8-8-17.8-17.8c0-0.1,0-0.2,0-0.2
		c0.2,0,0.4,0,0.7,0c1,0,2.2,0,3.8-0.1c0.7,0,1.2,0,1.5,0c5.2,0,9.5-2.8,11.7-7.2c2.6,4.7,8.3,7.2,13.8,7.2c0.2,0,0.7,0,1.4,0
		c1.2,0,2.1,0.1,2.7,0.1c0,0.1,0,0.2,0,0.2C67.2,45.9,59.2,53.8,49.4,53.8z M66.9,32.8c-0.8,0-1.7-0.1-2.3-0.1c-0.8,0-1.4,0-1.5,0
		c-5.9,0-12.2-3.4-12.2-9.8c0-2,0-3.4,0-4.6C58.9,19,65.5,25,66.9,32.8z M41.1,12.9c0-4.6,3.7-8.3,8.3-8.3c4.6,0,8.3,3.7,8.3,8.3
		c0,1.3-0.3,2.5-0.9,3.7c-2.3-0.9-4.8-1.4-7.4-1.4c-2.6,0-5.2,0.5-7.5,1.4C41.4,15.5,41.1,14.5,41.1,12.9z M47.9,18.3
		c0,0.9,0,1.3,0,1.7c0,0.4,0,0.7,0,1.4c0,6.5-4.3,11.2-10.3,11.2c-0.3,0-0.9,0-1.6,0c-1,0-2.8,0.1-4.1,0.1
		C33.3,25,39.9,19,47.9,18.3z"/>
</g>
</svg>
